<svg xmlns="http://www.w3.org/2000/svg" width="500" height="500" viewBox="0 0 500 500" version="1.1"><path d="M 87.557 11.223 C 86.169 13.204, 86 26.307, 86 131.891 C 86 206.365, 86.374 252.780, 87.007 256.918 C 89.626 274.039, 92.778 287.239, 95.982 294.500 C 106.113 317.460, 114.395 330.302, 128.475 344.881 C 155.799 373.174, 181.400 386.644, 224 395.143 C 232.214 396.781, 267.022 396.763, 276 395.115 C 301.451 390.444, 322.631 382.407, 341.398 370.299 C 365.433 354.792, 387.717 329.712, 398.972 305.500 C 404.801 292.961, 404.614 293.431, 407.464 284.155 C 413.634 264.069, 413.343 270.963, 413.718 136.112 C 414.036 21.523, 413.940 12.591, 412.375 10.862 C 410.745 9.061, 405.451 9, 249.902 9 L 89.113 9 87.557 11.223 M 95.600 73.250 C 94.358 75.182, 94.210 88.080, 94.555 164.500 C 95.006 264.256, 95.104 265.837, 102.117 286.255 C 108.246 304.101, 118.459 321.524, 130.692 335 C 151.697 358.141, 174.938 373.195, 202.210 381.326 C 210.141 383.691, 213.968 384.602, 225.826 386.947 C 232.413 388.249, 267.588 388.339, 273.307 387.068 C 275.613 386.555, 280.425 385.590, 284 384.922 C 297.411 382.416, 317.256 374.786, 331.519 366.652 C 350.832 355.637, 373.764 333.238, 384.398 315 C 392.979 300.283, 399.665 283.971, 402.075 271.875 C 405.700 253.676, 405.982 245.630, 405.991 159.973 C 405.999 85.077, 405.823 75.192, 404.443 73.223 L 402.887 71 249.966 71 L 97.046 71 95.600 73.250 M 248.028 75.948 C 247.009 77.852, 246.759 141.992, 247.760 144.750 C 248.532 146.877, 251.748 146.164, 252.270 143.750 C 252.538 142.512, 252.847 127.055, 252.957 109.399 C 253.135 80.738, 252.979 77.122, 251.507 75.649 C 249.430 73.572, 249.293 73.584, 248.028 75.948 M 190 91.773 C 190 92.749, 193.667 99.836, 198.150 107.523 C 202.632 115.211, 207.301 123.300, 208.525 125.500 C 209.749 127.700, 212.454 132.425, 214.535 136 C 216.617 139.575, 219.632 144.863, 221.235 147.750 C 222.838 150.637, 224.806 153, 225.606 153 C 227.600 153, 228.561 150.083, 227.216 148.114 C 225.947 146.257, 219.802 135.625, 208.183 115.187 C 203.708 107.315, 199.136 99.596, 198.024 98.033 C 196.911 96.470, 196 94.768, 196 94.251 C 196 92.974, 192.622 90, 191.171 90 C 190.527 90, 190 90.798, 190 91.773 M 304.327 94.250 C 301.784 98.255, 291.159 116.522, 277.799 139.859 C 272.148 149.730, 271.277 153, 274.298 153 C 275.047 153, 278.548 147.996, 282.079 141.879 C 285.611 135.763, 289.455 129.126, 290.622 127.129 C 291.790 125.133, 295.568 118.550, 299.018 112.500 C 302.468 106.450, 306.350 99.821, 307.645 97.770 C 308.940 95.718, 310 93.131, 310 92.020 C 310 88.642, 307.184 89.749, 304.327 94.250 M 226.534 110.945 C 226.175 111.526, 227.031 116.163, 228.436 121.251 C 229.841 126.338, 232.020 134.322, 233.278 138.993 C 234.913 145.064, 236.055 147.579, 237.283 147.816 C 240.025 148.344, 239.404 143.221, 234.635 126 C 231.591 115.006, 229.884 110.411, 228.765 110.195 C 227.897 110.027, 226.893 110.364, 226.534 110.945 M 269.511 111.750 C 267.678 116.310, 261 142.531, 261 145.166 C 261 147.436, 261.406 148.068, 262.705 147.818 C 263.961 147.576, 265.273 144.339, 267.696 135.495 C 269.504 128.898, 271.719 120.961, 272.617 117.858 C 273.516 114.755, 273.943 111.717, 273.567 111.108 C 272.529 109.429, 270.302 109.782, 269.511 111.750 M 189.111 132.367 C 188.208 133.454, 190.758 136.531, 201.582 147.419 C 209.066 154.946, 215.709 160.931, 216.344 160.719 C 216.980 160.507, 217.623 159.697, 217.773 158.917 C 218.044 157.511, 192.702 131, 191.087 131 C 190.624 131, 189.734 131.615, 189.111 132.367 M 295.405 144.138 C 282.853 156.633, 280.678 159.727, 283.734 160.745 C 285.121 161.207, 310.998 135.167, 310.999 133.309 C 311.002 129.647, 307.569 132.031, 295.405 144.138 M 148.104 132.914 C 146.090 134.190, 147.368 136.553, 150.923 138.126 C 152.616 138.875, 154 139.828, 154 140.244 C 154 140.660, 154.481 141, 155.070 141 C 155.658 141, 159.371 142.954, 163.320 145.343 C 167.269 147.732, 172.525 150.812, 175 152.189 C 177.475 153.565, 184 157.324, 189.500 160.541 C 205.130 169.684, 208.241 171.159, 209.417 169.983 C 210.109 169.291, 210.125 168.422, 209.466 167.377 C 208.587 165.983, 170.851 143.492, 165.299 141.054 C 164.088 140.522, 161.163 138.841, 158.799 137.319 C 154.955 134.844, 149.997 131.975, 149.636 132.015 C 149.561 132.024, 148.872 132.428, 148.104 132.914 M 342.217 136.500 C 338.240 138.975, 334.728 141, 334.413 141 C 334.097 141, 331.513 142.506, 328.669 144.347 C 323.915 147.425, 315.154 152.511, 302.500 159.540 C 295.246 163.570, 290.251 166.785, 289.595 167.846 C 289.280 168.356, 289.680 169.320, 290.484 169.987 C 291.991 171.237, 292.073 171.202, 304.250 164.167 C 306.313 162.975, 309.462 161.163, 311.250 160.140 C 313.038 159.118, 320.061 155.068, 326.857 151.140 C 333.653 147.213, 339.615 144, 340.107 144 C 340.598 144, 341 143.637, 341 143.192 C 341 142.748, 342.688 141.622, 344.750 140.689 C 350.560 138.062, 353.195 135.671, 352.442 133.709 C 351.475 131.189, 350.188 131.540, 342.217 136.500 M 236.696 154.443 C 229.115 157.119, 228.521 157.494, 221.635 163.943 C 216.199 169.036, 211.656 177.521, 209.939 185.792 C 208.541 192.526, 209.118 193.197, 216.704 193.665 C 226.127 194.246, 242.491 198.052, 247.811 200.899 C 249.103 201.590, 251.868 201.052, 257.785 198.958 C 262.287 197.365, 269.915 195.569, 274.736 194.967 C 289.654 193.104, 290.460 192.846, 290.810 189.822 C 290.980 188.349, 290.018 183.979, 288.673 180.111 C 280.959 157.928, 258.395 146.786, 236.696 154.443 M 167 170.922 C 167 173.159, 167.869 173.482, 187.304 178.463 C 203.851 182.703, 205.254 182.807, 204.820 179.763 C 204.582 178.103, 203.599 177.350, 201 176.839 C 199.075 176.461, 195.925 175.706, 194 175.160 C 183.511 172.188, 170.507 169, 168.872 169 C 167.692 169, 167 169.711, 167 170.922 M 323.500 170.476 C 320.750 171.195, 314.900 172.756, 310.500 173.945 C 306.100 175.135, 300.813 176.551, 298.750 177.093 C 296.026 177.808, 295 178.614, 295 180.039 C 295 182.734, 297.088 182.583, 310.882 178.889 C 317.272 177.178, 324.282 175.355, 326.461 174.837 C 331.248 173.699, 333.065 172.334, 332.334 170.427 C 331.682 168.730, 330.153 168.738, 323.500 170.476 M 132.792 191.057 C 131.849 191.606, 131.337 192.714, 131.649 193.526 C 132.518 195.793, 202.504 195.736, 203.374 193.468 C 203.767 192.444, 203.117 191.615, 201.416 190.968 C 197.985 189.664, 135.041 189.745, 132.792 191.057 M 297.411 191.371 C 297.087 192.214, 297.114 193.376, 297.470 193.952 C 297.902 194.650, 309.747 195, 332.952 195 C 362.655 195, 367.869 194.784, 368.349 193.532 C 368.659 192.725, 368.481 191.797, 367.953 191.471 C 367.425 191.145, 351.470 190.644, 332.496 190.358 C 302.109 189.900, 297.929 190.021, 297.411 191.371 M 196.708 198.476 C 193.523 199.124, 190.338 200.295, 189.632 201.077 C 188.925 201.860, 187.343 207.900, 186.116 214.500 C 184.889 221.100, 183.273 229.650, 182.524 233.500 C 181.776 237.350, 180.185 245.675, 178.989 252 C 177.793 258.325, 176.200 266.647, 175.450 270.492 C 174.661 274.534, 174.457 277.857, 174.968 278.368 C 175.453 278.853, 180.457 279.431, 186.088 279.653 C 201.299 280.252, 215.997 285.879, 226.912 295.283 L 230.323 298.223 232.011 295.985 C 232.939 294.755, 234.395 291.571, 235.246 288.910 C 236.532 284.889, 236.567 283.886, 235.457 282.964 C 233.558 281.388, 234.101 264.182, 236.089 262.924 C 236.865 262.432, 239.863 262.024, 242.750 262.015 L 248 262 248 233.572 L 248 205.144 242.282 203.004 C 227.854 197.606, 209.795 195.811, 196.708 198.476 M 272.500 198.929 C 268.100 199.877, 261.816 201.632, 258.535 202.827 C 255.254 204.022, 252.441 205, 252.285 205 C 252.128 205, 252 217.825, 252 233.500 L 252 262 257.941 262 C 261.447 262, 264.183 262.487, 264.616 263.187 C 266.047 265.503, 265.939 281.399, 264.481 283.015 C 263.318 284.306, 263.470 285.403, 265.506 290.414 C 268.749 298.392, 269.171 298.659, 273.127 295.238 C 283.352 286.396, 296.704 281.191, 313.207 279.613 C 322.921 278.684, 325.476 278.129, 325.384 276.969 C 325.154 274.076, 321.820 255.233, 318.930 240.500 C 317.311 232.250, 315.503 222.800, 314.912 219.500 C 313.075 209.251, 311.818 203.560, 311.047 202 C 308.866 197.591, 286.845 195.836, 272.500 198.929 M 170.368 213.987 C 168.977 214.549, 168.067 216.003, 167.747 218.174 C 167.478 220.003, 166.016 227.125, 164.497 234 C 162.979 240.875, 161.396 248.300, 160.978 250.500 C 160.049 255.395, 158.869 260.937, 155.440 276.500 C 152.335 290.591, 151.435 297.559, 152.635 298.206 C 153.111 298.463, 157.775 298.096, 163 297.392 C 181.984 294.832, 200.997 296.372, 215.459 301.641 C 229.004 306.577, 231.891 305.551, 223.207 298.888 C 209.184 288.129, 194.224 283.318, 177.519 284.194 C 167.627 284.714, 167.973 285.241, 170.517 273.500 C 171.351 269.650, 172.701 263.125, 173.517 259 C 174.333 254.875, 175.204 250.600, 175.453 249.500 C 175.701 248.400, 177.286 240.750, 178.975 232.500 C 180.664 224.250, 182.269 216.488, 182.542 215.250 C 183.009 213.133, 182.727 213.004, 177.769 213.063 C 174.871 213.098, 171.541 213.514, 170.368 213.987 M 317.465 215.250 C 317.742 216.488, 319.083 223.125, 320.444 230 C 321.806 236.875, 323.336 243.850, 323.844 245.500 C 324.352 247.150, 325.321 251.650, 325.997 255.500 C 326.673 259.350, 328.037 266.100, 329.027 270.500 C 330.017 274.900, 330.979 279.850, 331.164 281.500 L 331.500 284.499 321.500 284.166 C 304.211 283.591, 289.601 288.408, 277.250 298.756 C 268.700 305.919, 270.133 306.592, 284.023 301.939 C 301.099 296.218, 318.067 294.736, 336.553 297.351 C 341.532 298.055, 346.144 298.452, 346.803 298.232 C 348.917 297.528, 348.579 294.820, 343.470 271.500 C 342.626 267.650, 341.057 260.225, 339.982 255 C 338.907 249.775, 336.843 240.100, 335.395 233.500 C 333.947 226.900, 332.543 220.150, 332.275 218.500 C 331.583 214.239, 329.446 213, 322.790 213 C 317.264 213, 316.988 213.116, 317.465 215.250 M 151.373 228.157 C 147.862 229.096, 146.655 231.370, 145.086 240 C 142.828 252.421, 134.971 290.952, 131.992 304.214 C 130.916 309.006, 130.320 313.669, 130.667 314.575 C 131.331 316.305, 131.894 316.282, 143.500 314.045 C 153.506 312.117, 174.727 310.020, 184 310.042 C 192.891 310.064, 206.812 311.583, 220.329 314.007 C 227.475 315.289, 227.289 315.263, 228.446 315.118 C 230.029 314.920, 220.575 309.326, 216.407 307.995 C 214.258 307.308, 210.700 306.154, 208.500 305.430 C 197.118 301.685, 169.350 300.690, 154.656 303.501 C 150.342 304.327, 146.466 304.788, 146.043 304.527 C 145.620 304.265, 146.076 300.327, 147.058 295.776 C 148.039 291.224, 149.803 283.029, 150.977 277.564 C 152.151 272.099, 153.288 267.343, 153.504 266.994 C 153.719 266.645, 154.114 265.156, 154.381 263.684 C 155.160 259.388, 160.080 238.770, 161.083 235.601 C 162.192 232.095, 162.281 228.024, 161.250 227.936 C 160.838 227.901, 159.150 227.748, 157.500 227.597 C 155.850 227.445, 153.093 227.697, 151.373 228.157 M 338.413 228.366 C 338.068 229.266, 338.499 233.039, 339.373 236.751 C 340.246 240.463, 342.572 250.475, 344.543 259 C 346.513 267.525, 348.844 277.200, 349.723 280.500 C 350.601 283.800, 351.674 288.300, 352.105 290.500 C 352.537 292.700, 353.331 296.525, 353.870 299 C 354.408 301.475, 354.515 303.846, 354.107 304.268 C 353.698 304.690, 349.795 304.353, 345.432 303.518 C 334.708 301.466, 308.974 301.486, 299.063 303.553 C 289.454 305.558, 280.277 308.666, 276.927 311.052 C 275.468 312.091, 274.052 312.718, 273.780 312.446 C 273.508 312.174, 272.707 312.648, 272 313.500 C 271.293 314.352, 270.892 315.218, 271.107 315.426 C 271.323 315.633, 275.325 314.964, 280 313.939 C 284.675 312.914, 294.913 311.526, 302.750 310.854 C 319.226 309.442, 339.325 310.676, 356.843 314.176 C 370.124 316.830, 370.447 316.601, 368.355 306 C 367.541 301.875, 366.502 296.475, 366.047 294 C 365.245 289.642, 358.537 257.090, 356.980 250 C 356.557 248.075, 355.493 242.920, 354.614 238.545 C 353.736 234.169, 352.451 230.023, 351.759 229.332 C 351.066 228.640, 347.922 227.772, 344.771 227.402 C 339.985 226.840, 338.938 226.999, 338.413 228.366 M 238 268.429 C 238 273.956, 239.887 275.002, 249.821 274.985 C 254.595 274.976, 259.071 274.607, 259.768 274.164 C 261.245 273.227, 263.190 267.116, 262.412 265.858 C 262.120 265.386, 256.509 265, 249.941 265 L 238 265 238 268.429 M 237.238 279 C 237.471 280.222, 239.886 280.552, 250.262 280.780 C 261.913 281.036, 263 280.908, 263.001 279.280 C 263.001 277.664, 261.798 277.500, 249.976 277.500 C 238.938 277.500, 236.995 277.729, 237.238 279 M 239.393 286.457 C 238.627 287.550, 238 289.095, 238 289.890 C 238 290.685, 235.975 295.081, 233.500 299.658 C 231.025 304.236, 229 308.719, 229 309.621 C 229 310.523, 230.646 313.553, 232.658 316.353 C 236.593 321.830, 241.634 332.279, 244.431 340.758 C 245.385 343.650, 246.579 345.760, 247.083 345.449 C 247.587 345.137, 248 338.564, 248 330.842 L 248 316.802 245 314 C 243.237 312.353, 242 310.182, 242 308.734 C 242 305.813, 245.245 301.374, 248.026 300.492 C 249.755 299.943, 250 298.955, 250 292.533 L 250 285.201 245.393 284.835 C 241.670 284.539, 240.518 284.850, 239.393 286.457 M 254.750 284.689 C 253.279 285.074, 253 286.346, 253 292.679 C 253 299.254, 253.318 300.589, 255.500 303.182 C 258.851 307.165, 258.695 310.548, 255 314 L 252 316.802 252.015 330.151 C 252.032 344.286, 252.800 347.929, 254.827 343.481 C 255.472 342.065, 256 340.432, 256 339.853 C 256 337.484, 263.162 322.506, 266.944 316.965 C 269.175 313.697, 271 310.266, 271 309.342 C 271 308.418, 269.726 305.375, 268.168 302.581 C 266.610 299.786, 264.252 294.800, 262.927 291.500 C 259.907 283.975, 259.328 283.493, 254.750 284.689 M 76.500 322.152 L 66.686 342.229 62.593 341.631 C 50.600 339.879, 34.964 336.048, 21.842 331.647 C 18.071 330.383, 14.785 329.549, 14.539 329.794 C 12.565 331.768, 44.885 383.339, 50.126 386.578 C 51.826 387.628, 50.944 388.736, 45.920 391.859 C 43.125 393.596, 40.988 395.420, 41.170 395.913 C 42.693 400.040, 66.586 422.725, 82 434.679 C 107.247 454.258, 141.729 471.743, 170.332 479.469 C 173.449 480.311, 178.436 481.659, 181.413 482.465 C 187.206 484.032, 188.484 484.313, 197 485.890 C 218.738 489.915, 225.460 490.500, 250 490.500 C 270.517 490.500, 280.257 489.901, 291.500 487.946 C 294.800 487.373, 300.200 486.429, 303.500 485.850 C 329.266 481.324, 361.349 469.550, 387.378 455.068 C 398.049 449.130, 411.028 440.204, 424 429.880 C 434.542 421.490, 459 397.866, 459 396.074 C 459 395.547, 456.750 393.852, 454.001 392.308 C 448.762 389.365, 448.027 388.053, 450.479 386.018 C 456.994 380.610, 487.371 331.704, 485.423 329.756 C 485.134 329.467, 482.708 330.063, 480.031 331.080 C 467.617 335.797, 435.575 342.861, 433.273 341.388 C 432.509 340.900, 430.860 338.025, 429.607 335 C 425.755 325.697, 413.702 302.066, 413.023 302.486 C 412.670 302.704, 409.967 306.846, 407.017 311.691 C 404.066 316.536, 399.818 322.932, 397.576 325.904 C 395.334 328.876, 392.106 333.151, 390.402 335.404 C 388.699 337.657, 381.351 345.261, 374.074 352.303 C 359.642 366.267, 360.215 364.968, 365.761 371.119 L 368.122 373.737 361.811 378.182 C 341.445 392.527, 313.241 404.545, 289.500 408.994 C 254.421 415.567, 224.399 414.029, 191.473 403.970 C 173.118 398.364, 153.102 388.695, 138.168 378.222 L 131.835 373.781 134.218 371.141 C 139.859 364.888, 140.440 366.223, 126.031 352.341 C 111.493 338.336, 101.679 326.321, 93.261 312.223 C 90.214 307.120, 87.405 302.750, 87.018 302.511 C 86.631 302.272, 81.898 311.111, 76.500 322.152 M 84.417 314.069 C 79.839 322.949, 76.046 331.028, 72.836 338.739 C 71.174 342.732, 69.203 346, 68.457 346 C 65.819 346, 37.401 340.033, 30.503 338.031 C 26.655 336.914, 22.920 336, 22.204 336 C 19.119 336, 44.810 376.778, 52.367 383.875 L 54.896 386.251 59.698 383.469 C 65.726 379.977, 85.103 366.145, 96.060 357.513 C 100.635 353.908, 104.686 351.081, 105.063 351.230 C 105.440 351.378, 109.068 354.608, 113.124 358.406 C 120.650 365.453, 127.678 371, 129.082 371 C 129.512 371, 130.788 369.703, 131.917 368.117 L 133.970 365.234 121.209 352.367 C 107.132 338.172, 94.565 322.229, 88.262 310.569 C 87.331 308.847, 86.913 309.227, 84.417 314.069 M 409.805 313.977 C 404.425 323.613, 388.724 342.999, 377.466 353.905 L 365.921 365.088 368.211 367.989 C 369.470 369.584, 370.868 370.914, 371.317 370.945 C 372.332 371.013, 378.618 366.403, 382.113 363.025 C 383.550 361.636, 387.006 358.298, 389.792 355.607 L 394.858 350.715 401.679 356.084 C 405.431 359.036, 408.725 361.699, 409 362.001 C 410.145 363.259, 424.543 373.539, 434.162 379.967 L 444.500 386.875 446.873 384.687 C 451.868 380.082, 468.032 356.478, 474.906 343.750 C 479.484 335.274, 479.318 334.936, 471.785 337.403 C 463.618 340.077, 435.778 346, 431.374 346 C 430.693 346, 429.826 345.027, 429.449 343.839 C 427.946 339.104, 414.082 310.174, 412.992 309.496 C 412.712 309.323, 411.278 311.339, 409.805 313.977 M 100.360 358.311 C 98.084 360.121, 94.709 362.803, 92.860 364.270 C 89.995 366.545, 83.781 371.075, 68.500 382.029 C 66.850 383.211, 61.337 386.865, 56.250 390.148 C 51.163 393.430, 47 396.627, 47 397.252 C 47 399.691, 70.829 421.650, 87.516 434.589 C 104.227 447.546, 135.760 464.323, 157.500 471.822 C 180.887 479.889, 197.450 483.512, 226.909 487.003 C 251.008 489.860, 285.235 487.081, 315 479.853 C 352.392 470.772, 387.815 453.829, 417.489 430.832 C 426.302 424.002, 449.644 402.473, 451.795 399.191 C 453.340 396.833, 453.327 396.614, 451.593 395.590 C 439.821 388.642, 404.913 363.804, 398.300 357.672 L 395.099 354.704 388.800 360.767 C 380.986 368.289, 369.260 377.924, 366.255 379.294 C 365.015 379.859, 364 380.627, 364 381.002 C 364 381.376, 361.862 382.899, 359.250 384.386 C 356.637 385.872, 353.150 387.893, 351.500 388.877 C 345.915 392.205, 334.536 397.880, 327.025 401.083 C 316.487 405.576, 298.120 410.972, 286.500 412.990 C 282.650 413.658, 277.340 414.609, 274.701 415.102 C 268.129 416.331, 233.173 416.237, 225.082 414.968 C 198.633 410.820, 180.045 405.107, 159.500 394.810 C 151.649 390.875, 137.023 382.067, 134.561 379.792 C 133.495 378.806, 132.275 378, 131.849 378 C 130.751 378, 114.271 364.051, 109.547 359.124 C 107.373 356.856, 105.348 355.004, 105.047 355.010 C 104.746 355.015, 102.637 356.501, 100.360 358.311" stroke="none" fill="#5a5b5c" fill-rule="evenodd"/><path d="M 94.442 104 C 94.442 120.225, 94.580 126.862, 94.748 118.750 C 94.916 110.637, 94.916 97.362, 94.748 89.250 C 94.580 81.137, 94.442 87.775, 94.442 104 M 405.477 155.500 C 405.477 200.050, 405.599 218.421, 405.750 196.325 C 405.900 174.228, 405.900 137.778, 405.750 115.325 C 405.600 92.871, 405.477 110.950, 405.477 155.500 M 252.252 135.500 C 252.263 137.700, 252.468 138.482, 252.707 137.238 C 252.946 135.994, 252.937 134.194, 252.687 133.238 C 252.437 132.282, 252.241 133.300, 252.252 135.500 M 306.946 138.750 L 303.500 142.500 307.250 139.054 C 310.740 135.846, 311.460 135, 310.696 135 C 310.529 135, 308.842 136.688, 306.946 138.750 M 349.280 190.736 C 351.909 190.943, 355.959 190.940, 358.280 190.731 C 360.601 190.521, 358.450 190.352, 353.500 190.355 C 348.550 190.358, 346.651 190.530, 349.280 190.736 M 363 190.387 C 363 190.599, 364.326 190.968, 365.947 191.206 C 367.568 191.443, 368.667 191.270, 368.388 190.819 C 367.893 190.017, 363 189.625, 363 190.387 M 94.355 238.500 C 94.352 243.450, 94.521 245.601, 94.731 243.280 C 94.940 240.959, 94.943 236.909, 94.736 234.280 C 94.530 231.651, 94.358 233.550, 94.355 238.500 M 102 234 L 96.500 234.500 96.700 243.923 C 97.458 279.678, 112.282 314.187, 137.995 340.057 C 165.033 367.259, 199.495 383.068, 238.250 386.047 C 314.123 391.880, 383.407 342.921, 399.922 271.802 C 403.317 257.183, 405.070 235.780, 402.979 234.487 C 401.855 233.793, 359.125 233.804, 358.001 234.500 C 357.188 235.002, 357.485 236.613, 366.504 280.700 C 375.193 323.171, 376 320.831, 354 316.952 C 326.584 312.117, 298.806 312.377, 277.591 317.664 C 271.657 319.143, 266.399 318.781, 267.518 316.971 C 267.848 316.437, 267.888 316, 267.608 316 C 267.327 316, 265.560 318.813, 263.680 322.250 C 260.621 327.842, 259.259 331.041, 254.923 342.817 C 252.895 348.325, 252.032 344.594, 252.015 330.250 C 252.001 317.672, 251.899 317, 250 317 C 248.096 317, 248 317.667, 248 330.941 C 248 338.609, 247.587 345.137, 247.083 345.449 C 246.579 345.760, 245.385 343.650, 244.431 340.758 C 240.875 329.981, 232 312.846, 232 316.758 C 232 318.852, 228.884 318.808, 216.346 316.534 C 192.445 312.199, 172.176 312.377, 143.690 317.169 L 130.880 319.324 128.719 317.163 L 126.558 315.002 132.335 286.251 C 135.512 270.438, 139.208 252.359, 140.548 246.076 C 141.888 239.792, 142.824 234.490, 142.627 234.293 C 142.039 233.705, 107.949 233.459, 102 234 M 405.310 242.500 C 405.315 245.800, 405.502 247.029, 405.725 245.232 C 405.947 243.435, 405.943 240.735, 405.715 239.232 C 405.486 237.729, 405.304 239.200, 405.310 242.500 M 240.750 277.706 C 241.988 277.944, 244.012 277.944, 245.250 277.706 C 246.488 277.467, 245.475 277.272, 243 277.272 C 240.525 277.272, 239.512 277.467, 240.750 277.706 M 250.750 277.723 C 252.537 277.945, 255.463 277.945, 257.250 277.723 C 259.038 277.502, 257.575 277.320, 254 277.320 C 250.425 277.320, 248.963 277.502, 250.750 277.723 M 244.250 281.739 C 247.412 281.937, 252.588 281.937, 255.750 281.739 C 258.913 281.541, 256.325 281.378, 250 281.378 C 243.675 281.378, 241.088 281.541, 244.250 281.739 M 243.762 284.707 C 245.006 284.946, 246.806 284.937, 247.762 284.687 C 248.718 284.437, 247.700 284.241, 245.500 284.252 C 243.300 284.263, 242.518 284.468, 243.762 284.707 M 348.079 295.667 C 348.036 296.858, 347.438 298.060, 346.750 298.338 C 345.771 298.733, 345.778 298.859, 346.781 298.921 C 348.299 299.015, 349.403 296.600, 348.673 294.783 C 348.390 294.077, 348.122 294.475, 348.079 295.667 M 309.250 296.689 C 310.212 296.941, 311.788 296.941, 312.750 296.689 C 313.712 296.438, 312.925 296.232, 311 296.232 C 309.075 296.232, 308.288 296.438, 309.250 296.689 M 173.250 301.728 C 175.313 301.944, 178.688 301.944, 180.750 301.728 C 182.813 301.513, 181.125 301.336, 177 301.336 C 172.875 301.336, 171.188 301.513, 173.250 301.728 M 317.250 301.728 C 319.313 301.944, 322.688 301.944, 324.750 301.728 C 326.813 301.513, 325.125 301.336, 321 301.336 C 316.875 301.336, 315.188 301.513, 317.250 301.728 M 172.762 310.707 C 174.006 310.946, 175.806 310.937, 176.762 310.687 C 177.718 310.437, 176.700 310.241, 174.500 310.252 C 172.300 310.263, 171.518 310.468, 172.762 310.707 M 80.998 325.764 C 78.121 332.219, 74.707 339.892, 73.409 342.815 L 71.051 348.130 66.276 347.460 C 58.086 346.311, 41.812 343.043, 34.500 341.078 C 30.650 340.043, 27.124 339.551, 26.665 339.984 C 24.795 341.745, 39.275 364.576, 53.948 383 L 55.940 385.500 60.220 383.101 C 65.546 380.117, 84.987 366.236, 96.060 357.513 C 100.635 353.908, 104.686 351.081, 105.063 351.230 C 105.440 351.378, 109.068 354.599, 113.124 358.387 C 117.181 362.175, 121.972 366.398, 123.772 367.772 C 126.931 370.184, 127.112 370.209, 129.022 368.480 C 130.110 367.496, 131 366.248, 131 365.707 C 131 365.167, 127.122 361.097, 122.383 356.663 C 112.198 347.133, 102.510 335.740, 94.626 324.018 C 91.488 319.352, 88.315 315.196, 87.574 314.782 C 86.577 314.224, 84.870 317.075, 80.998 325.764 M 411.876 315.200 C 410.983 315.915, 407.870 320.100, 404.959 324.500 C 398.571 334.154, 386.699 348.150, 377.390 357 C 373.630 360.575, 370.665 363.871, 370.801 364.324 C 370.938 364.778, 370.588 364.864, 370.025 364.515 C 368.543 363.600, 368.762 364.789, 370.669 368.017 L 372.339 370.843 375.919 368.197 C 377.889 366.741, 380.676 364.414, 382.113 363.025 C 383.550 361.636, 387.006 358.298, 389.792 355.607 L 394.858 350.715 401.679 356.084 C 405.431 359.036, 408.725 361.690, 409 361.982 C 412.155 365.324, 445.919 388.296, 444.644 386.233 C 444.328 385.721, 444.846 384.447, 445.796 383.401 C 455.287 372.948, 474.915 342.289, 473.540 340.065 C 473.246 339.588, 469.741 340.055, 465.752 341.102 C 458.222 343.079, 432.986 348, 430.377 348 C 429.552 348, 427.980 345.881, 426.854 343.250 C 423.514 335.449, 419.686 326.933, 416.500 320.221 C 413.862 314.662, 413.304 314.056, 411.876 315.200 M 127 344.313 C 127 344.485, 128.463 345.948, 130.250 347.563 L 133.500 350.500 130.563 347.250 C 127.825 344.221, 127 343.540, 127 344.313 M 369.437 347.250 L 366.500 350.500 369.750 347.563 C 371.538 345.948, 373 344.485, 373 344.313 C 373 343.540, 372.175 344.221, 369.437 347.250 M 380.462 351.250 L 375.500 356.500 380.750 351.538 C 383.637 348.808, 386 346.446, 386 346.288 C 386 345.541, 385.074 346.372, 380.462 351.250 M 70 357.408 C 70 358.974, 69.175 360.371, 67.824 361.094 L 65.647 362.259 68.324 363.662 C 69.956 364.517, 71 365.899, 71 367.206 L 71 369.349 73.277 367.210 C 74.857 365.726, 76.271 365.258, 77.897 365.683 C 80.204 366.287, 80.214 366.257, 78.549 363.715 C 77.176 361.620, 77.080 360.719, 78.037 358.932 C 79.125 356.897, 79.031 356.776, 76.791 357.337 C 75.334 357.703, 73.497 357.336, 72.184 356.416 C 70.112 354.965, 70 355.016, 70 357.408 M 428.091 356.377 C 427.082 357.602, 425.869 357.911, 423.824 357.461 C 421.051 356.852, 421.002 356.910, 422.156 359.444 C 423.066 361.441, 423.070 362.330, 422.173 363.227 C 420.405 364.995, 420.764 366.210, 422.859 365.545 C 423.932 365.204, 425.252 365.598, 425.981 366.477 C 427.583 368.408, 429 368.433, 429 366.532 C 429 365.725, 430.204 364.433, 431.676 363.662 C 434.321 362.276, 434.328 362.246, 432.243 361.130 C 431.082 360.509, 429.991 358.800, 429.816 357.333 C 429.526 354.884, 429.384 354.806, 428.091 356.377 M 93 367.126 C 86.675 372.098, 74.412 380.896, 65.750 386.679 C 57.087 392.461, 50 397.495, 50 397.865 C 50 399.867, 77.394 424.926, 88.277 432.881 C 91.455 435.203, 93.810 437.499, 93.511 437.982 C 93.212 438.466, 93.494 439.187, 94.138 439.585 C 94.869 440.037, 95.041 439.876, 94.595 439.155 C 93.386 437.198, 94.730 437.817, 103.168 443.105 C 124.559 456.511, 147.536 467.147, 167.996 473.114 C 171.573 474.157, 175.850 475.439, 177.500 475.963 C 192.869 480.841, 230.110 485.994, 250 485.994 C 267.431 485.994, 298.748 482.063, 315 477.835 C 319.125 476.762, 325.090 475.240, 328.257 474.452 C 341.035 471.273, 369.281 459.372, 384 450.965 C 392.275 446.239, 405.136 437.977, 408.327 435.338 C 411.308 432.872, 413.610 432.204, 412.405 434.155 C 411.959 434.876, 412.131 435.037, 412.862 434.585 C 413.506 434.187, 413.798 433.482, 413.512 433.019 C 412.776 431.829, 420.741 425.722, 422.007 426.504 C 422.580 426.859, 422.926 426.724, 422.775 426.205 C 422.624 425.686, 428.463 419.535, 435.750 412.537 C 443.038 405.538, 449 399.179, 449 398.405 C 449 397.631, 443.713 393.489, 437.250 389.199 C 424.580 380.789, 413.430 372.733, 402.803 364.308 C 399.120 361.389, 395.608 359, 394.997 359 C 394.387 359, 389.526 362.849, 384.194 367.552 C 363.568 385.749, 339.215 399.604, 312.500 408.341 C 273.709 421.027, 228.011 421.301, 189.910 409.076 C 172.611 403.525, 149.339 392.879, 150.477 391.037 C 150.783 390.543, 150.506 389.813, 149.862 389.415 C 149.131 388.963, 148.959 389.124, 149.405 389.845 C 150.698 391.938, 148.503 391.058, 141.204 386.558 C 131.845 380.788, 123.441 374.379, 113.354 365.318 C 108.873 361.293, 105.048 358.019, 104.854 358.043 C 104.659 358.066, 99.325 362.154, 93 367.126 M 260.250 396.689 C 261.212 396.941, 262.788 396.941, 263.750 396.689 C 264.712 396.438, 263.925 396.232, 262 396.232 C 260.075 396.232, 259.288 396.438, 260.250 396.689 M 235.762 412.707 C 237.006 412.946, 238.806 412.937, 239.762 412.687 C 240.718 412.437, 239.700 412.241, 237.500 412.252 C 235.300 412.263, 234.518 412.468, 235.762 412.707 M 261.250 412.689 C 262.212 412.941, 263.788 412.941, 264.750 412.689 C 265.712 412.438, 264.925 412.232, 263 412.232 C 261.075 412.232, 260.288 412.438, 261.250 412.689 M 245.250 416.735 C 247.863 416.941, 252.137 416.941, 254.750 416.735 C 257.363 416.529, 255.225 416.360, 250 416.360 C 244.775 416.360, 242.637 416.529, 245.250 416.735 M 234.768 487.725 C 236.565 487.947, 239.265 487.943, 240.768 487.715 C 242.271 487.486, 240.800 487.304, 237.500 487.310 C 234.200 487.315, 232.971 487.502, 234.768 487.725 M 257.250 487.728 C 259.313 487.944, 262.688 487.944, 264.750 487.728 C 266.813 487.513, 265.125 487.336, 261 487.336 C 256.875 487.336, 255.188 487.513, 257.250 487.728" stroke="none" fill="#3fb14e" fill-rule="evenodd"/></svg>